<svg width="22" height="20" viewBox="0 0 22 20" fill="none" xmlns="http://www.w3.org/2000/svg">
<path d="M6.69674 0C3.48024 0 0.863403 2.49222 0.863403 5.55556V14.4444C0.863403 17.5078 3.48024 20 6.69674 20H16.0301C19.2466 20 21.8634 17.5078 21.8634 14.4444V5.55556C21.8634 2.49222 19.2466 0 16.0301 0H6.69674ZM6.69674 2.22222H16.0301C17.9597 2.22222 19.5301 3.71778 19.5301 5.55556V14.4444C19.5301 16.2822 17.9597 17.7778 16.0301 17.7778H6.69674C4.76707 17.7778 3.19674 16.2822 3.19674 14.4444V5.55556C3.19674 3.71778 4.76707 2.22222 6.69674 2.22222ZM17.1967 3.33333C16.8873 3.33333 16.5906 3.4504 16.3718 3.65877C16.153 3.86714 16.0301 4.14976 16.0301 4.44444C16.0301 4.73913 16.153 5.02174 16.3718 5.23012C16.5906 5.43849 16.8873 5.55556 17.1967 5.55556C17.5062 5.55556 17.8029 5.43849 18.0217 5.23012C18.2405 5.02174 18.3634 4.73913 18.3634 4.44444C18.3634 4.14976 18.2405 3.86714 18.0217 3.65877C17.8029 3.4504 17.5062 3.33333 17.1967 3.33333ZM11.3634 4.44444C8.1469 4.44444 5.53007 6.93667 5.53007 10C5.53007 13.0633 8.1469 15.5556 11.3634 15.5556C14.5799 15.5556 17.1967 13.0633 17.1967 10C17.1967 6.93667 14.5799 4.44444 11.3634 4.44444ZM11.3634 6.66667C13.2931 6.66667 14.8634 8.16222 14.8634 10C14.8634 11.8378 13.2931 13.3333 11.3634 13.3333C9.43374 13.3333 7.8634 11.8378 7.8634 10C7.8634 8.16222 9.43374 6.66667 11.3634 6.66667Z" fill="#E86C00"/>
</svg>
